<svg height="512" viewBox="0 0 512 512" width="512" xmlns="http://www.w3.org/2000/svg" xmlns:xlink="http://www.w3.org/1999/xlink"><linearGradient id="New_Gradient_Swatch_13" gradientUnits="userSpaceOnUse" x1="108.462" x2="403.538" y1="365.557" y2="70.482"><stop offset="0" stop-color="#d46669"/><stop offset="1" stop-color="#dd888a"/></linearGradient><linearGradient id="New_Gradient_Swatch_22" gradientUnits="userSpaceOnUse" x1="157.051" x2="354.949" y1="298.949" y2="101.051"><stop offset=".011" stop-color="#dcdce3"/><stop offset="1" stop-color="#ededf1"/></linearGradient><linearGradient id="New_Gradient_Swatch_3" gradientUnits="userSpaceOnUse" x1="187.515" x2="324.485" y1="292.485" y2="155.514"><stop offset=".011" stop-color="#606082"/><stop offset="1" stop-color="#83839e"/></linearGradient><g id="_01-home" data-name="01-home"><g id="gradient"><path d="m256 4c-108.075 0-196 87.925-196 196 0 52.5 31.807 119.92 94.537 200.378a1065.816 1065.816 0 0 0 93.169 104.294 12 12 0 0 0 16.588 0 1065.816 1065.816 0 0 0 93.169-104.294c62.73-80.458 94.537-147.878 94.537-200.378 0-108.075-87.925-196-196-196z" fill="url(#New_Gradient_Swatch_13)"/><circle cx="256" cy="200" fill="url(#New_Gradient_Swatch_22)" r="140"/><path d="m352.072 183.121-88-80a12 12 0 0 0 -16.144 0l-88 80a12.006 12.006 0 0 0 -2.23 15.039 12.331 12.331 0 0 0 10.66 5.84h11.642v76a12 12 0 0 0 12 12h28a12 12 0 0 0 12-12v-44a12 12 0 0 1 12-12h24a12 12 0 0 1 12 12v44a12 12 0 0 0 12 12h28a12 12 0 0 0 12-12v-76h11.642a12.331 12.331 0 0 0 10.66-5.84 12.006 12.006 0 0 0 -2.23-15.039z" fill="url(#New_Gradient_Swatch_3)"/></g></g></svg>