<svg height="512pt" viewBox="0 -89 512.00008 512" width="512pt" xmlns="http://www.w3.org/2000/svg"><path d="m48.75 169.992188h45.210938c2.703124 0 4.894531 2.191406 4.894531 4.894531v149.152343c0 2.703126-2.191407 4.894532-4.894531 4.894532h-45.210938c-2.707031 0-4.898438-2.191406-4.898438-4.894532v-149.152343c0-2.703125 2.191407-4.894531 4.898438-4.894531zm0 0" fill="#60bae2"/><path d="m121.460938 179.550781h-22.597657v137.429688h22.597657c2.707031 0 4.898437-2.191407 4.898437-4.894531v-127.644532c-.003906-2.703125-2.195313-4.890625-4.898437-4.890625zm0 0" fill="#e9e9ea"/><path d="m432.367188 221.164062c-5.019532-10.15625-17.257813-14.410156-27.492188-9.554687l-81.074219 38.460937c5.261719-3.601562 8.6875-8.269531 8.6875-14.351562 0-26.289062-34.652343-21.511719-62.140625-21.511719-17.03125 0-43.925781-9.175781-61.921875-16.15625-12.996093-5.027343-27-6.886719-40.855469-5.421875l-41.210937 4.324219v96.128906l17.570313-1.90625c17.476562-1.898437 35.15625-.589843 52.160156 3.863281l56.484375 14.800782c32.066406 8.402344 66.148437 3.832031 94.867187-12.722656l77.457032-49.265626c8.9375-5.6875 12.15625-17.191406 7.46875-26.6875zm0 0" fill="#f9d0b4"/><path d="m441.054688 32.242188c-33.632813-33.632813-87.292969-36.28125-124.074219-6.121094-4.472657 3.671875-10.921875 3.671875-15.398438 0-36.78125-30.164063-90.445312-27.519532-124.078125 6.121094-36.125 36.121093-36.125 94.691406 0 130.816406l37.476563 37.476562c17.519531 6.492188 40.304687 13.675782 55.375 13.675782 27.484375 0 62.144531-4.78125 62.144531 21.511718 0 6.082032-3.429688 10.753906-8.691406 14.351563l57.527344-27.292969 58.761718-58.765625.957032-.957031c36.125-36.125 36.125-94.695313 0-130.816406zm0 0" fill="#f75c64"/><path d="m421.914062 312.886719c-8.902343-1.707031-15.867187-8.671875-17.574218-17.574219-.050782-.214844-.265625-.351562-.480469-.300781-.148437.03125-.265625.152343-.300781.300781-1.707032 8.902344-8.671875 15.867188-17.578125 17.574219-.214844.050781-.347657.265625-.300781.480469.035156.148437.152343.265624.300781.300781 8.90625 1.707031 15.871093 8.671875 17.578125 17.578125.050781.214844.261718.347656.476562.300781.152344-.035156.265625-.152344.304688-.300781 1.707031-8.90625 8.671875-15.871094 17.574218-17.578125.214844-.050781.351563-.261719.300782-.476563-.035156-.152344-.152344-.269531-.300782-.304687zm0 0" fill="#60bae2"/><path d="m80.121094 108.917969c-8.90625-1.707031-15.867188-8.671875-17.578125-17.574219-.050781-.21875-.261719-.351562-.476563-.304688-.148437.035157-.265625.152344-.300781.304688-1.710937 8.902344-8.671875 15.867188-17.578125 17.574219-.214844.050781-.347656.265625-.300781.476562.035156.152344.152343.269531.300781.304688 8.90625 1.707031 15.867188 8.671875 17.578125 17.574219.046875.21875.261719.351562.476563.304687.148437-.035156.265624-.152344.300781-.304687 1.710937-8.902344 8.671875-15.867188 17.578125-17.574219.214844-.050781.347656-.265625.300781-.480469-.035156-.148438-.152344-.265625-.300781-.300781zm0 0" fill="#f75c64"/><path d="m507 184.550781h-17.378906c-2.761719 0-5-2.238281-5-5s2.238281-5 5-5h17.378906c2.761719 0 5 2.238281 5 5s-2.238281 5-5 5zm0 0" fill="#fcd770"/><path d="m498.308594 193.242188c-2.761719 0-5-2.238282-5-5v-17.382813c0-2.761719 2.238281-5 5-5 2.761718 0 5 2.238281 5 5v17.382813c0 2.761718-2.238282 5-5 5zm0 0" fill="#fcd770"/><path d="m5 151.007812c-1.324219-.003906-2.597656-.527343-3.539062-1.460937-.234376-.234375-.4375-.488281-.621094-.761719-.179688-.273437-.332032-.566406-.460938-.867187-.121094-.300781-.21875-.613281-.277344-.933594-.070312-.320313-.101562-.648437-.101562-.976563 0-.332031.03125-.660156.101562-.980468.058594-.320313.15625-.632813.277344-.929688.128906-.304687.28125-.597656.460938-.871094.183594-.273437.386718-.527343.621094-.761718 1.4375-1.417969 3.578124-1.839844 5.449218-1.078125.300782.128906.589844.28125.859375.460937.273438.175782.53125.382813.761719.617188s.4375.488281.617188.761718c.183593.273438.335937.566407.460937.871094.125.296875.226563.609375.289063.929688.066406.320312.097656.648437.101562.980468-.003906.328126-.035156.65625-.101562.976563-.0625.320313-.164063.632813-.289063.933594s-.277344.59375-.460937.867187c-.179688.273438-.386719.527344-.617188.761719s-.488281.441406-.761719.621094c-.269531.175781-.558593.332031-.859375.457031-.304687.125-.617187.21875-.941406.28125-.316406.066406-.644531.101562-.96875.101562zm0 0" fill="#6dcc6d"/><path d="m468.839844 222.992188c-1.324219-.003907-2.597656-.527344-3.539063-1.460938-.234375-.234375-.4375-.488281-.621093-.761719-.179688-.273437-.332032-.566406-.460938-.871093-.121094-.296876-.214844-.609376-.277344-.929688-.070312-.320312-.101562-.648438-.101562-.976562 0-.332032.03125-.660157.101562-.980469.0625-.320313.15625-.632813.277344-.929688.128906-.304687.28125-.597656.460938-.871093.183593-.273438.386718-.527344.621093-.761719 1.4375-1.417969 3.578125-1.839844 5.449219-1.078125.300781.128906.589844.28125.859375.460937.273437.175781.53125.382813.761719.617188.230468.234375.4375.488281.617187.761719.183594.273437.335938.566406.460938.871093.125.296875.226562.609375.289062.929688.066407.320312.097657.648437.101563.980469-.003906.328124-.035156.65625-.101563.976562-.0625.320312-.164062.632812-.289062.929688-.125.304687-.277344.597656-.460938.871093-.179687.273438-.386719.527344-.617187.761719-.230469.234375-.488282.441406-.761719.617188-.269531.179687-.558594.332031-.859375.460937-.304688.125-.617188.21875-.941406.28125-.316406.066406-.640625.101563-.96875.101563zm0 0" fill="#6dcc6d"/><g fill="#231f20"><path d="m93.960938 333.933594h-45.210938c-5.464844-.003906-9.890625-4.429688-9.894531-9.894532v-149.15625c.003906-5.460937 4.429687-9.886718 9.894531-9.890624h45.210938c5.460937.003906 9.886718 4.429687 9.894531 9.890624v149.15625c-.007813 5.464844-4.433594 9.890626-9.894531 9.894532zm-45.210938-158.941406.105469 149.046874 45.105469-.105468-.105469-148.945313zm45.210938 0"/><path d="m121.460938 321.984375h-22.597657c-2.761719 0-5-2.238281-5-5v-137.433594c0-2.761719 2.238281-5 5-5h22.597657c5.464843.003907 9.890624 4.429688 9.894531 9.894531v127.640626c-.003907 5.460937-4.429688 9.890624-9.894531 9.898437zm-17.597657-10h17.597657l-.105469-127.433594h-17.5zm17.597657-127.433594"/><path d="m284.710938 319.011719c-11.273438-.007813-22.5-1.464844-33.402344-4.328125l-56.484375-14.800782c-16.417969-4.316406-33.480469-5.582031-50.355469-3.738281l-17.570312 1.90625c-2.746094.296875-5.210938-1.6875-5.511719-4.429687-.019531-.179688-.027344-.359375-.027344-.539063v-96.125c0-2.5625 1.929687-4.703125 4.476563-4.972656l41.210937-4.324219c14.648437-1.535156 29.445313.433594 43.183594 5.734375 26.296875 10.199219 47.644531 15.816407 60.117187 15.816407 3.597656 0 7.324219-.082032 11.078125-.164063 19.175781-.425781 39.015625-.871094 49.363281 9.25 4.558594 4.625 6.988282 10.9375 6.703126 17.425781 0 .796875-.042969 1.59375-.128907 2.386719l65.363281-31.015625c12.851563-6.089844 28.203126-.609375 34.292969 12.242188 5.5625 11.730468 1.515625 25.769531-9.4375 32.742187l-77.457031 49.261719c-.058594.039062-.121094.078125-.183594.113281-19.824218 11.484375-42.324218 17.542969-65.230468 17.558594zm-125.140626-33.6875c12.753907 0 25.453126 1.640625 37.789063 4.882812l56.488281 14.800781c30.746094 8.136719 63.464844 3.761719 91-12.167968l77.363282-49.199219c7.339843-4.667969 9.5-14.398437 4.832031-21.738281-4.261719-6.703125-12.851563-9.179688-20.03125-5.773438l-80.667969 38.273438c-18.15625 12.140625-52.628906 12.613281-57.800781 12.613281-2.761719 0-5-2.238281-5-5s2.238281-5 5-5c11.480469 0 38.941406-2.222656 51.917969-10.671875.316406-.28125.667968-.519531 1.046874-.714844 3.695313-2.675781 5.972657-5.941406 5.972657-9.90625.261719-3.789062-1.070313-7.519531-3.679688-10.28125-7.339843-7.175781-25.832031-6.761718-42.152343-6.402344-3.828126.085938-7.625.171876-11.296876.171876-17.53125 0-44.332031-8.96875-63.730468-16.496094-12.257813-4.722656-25.457032-6.480469-38.519532-5.113282l-36.734374 3.851563v86.050781l12.03125-1.304687c5.371093-.582031 10.769531-.875 16.171874-.875zm0 0"/><path d="m323.8125 255.070312c-2.761719.003907-5.003906-2.234374-5.003906-4.996093 0-1.652344.816406-3.199219 2.179687-4.132813 4.378907-3 6.511719-6.335937 6.511719-10.222656.253906-3.789062-1.085938-7.519531-3.699219-10.277344-7.339843-7.175781-25.832031-6.761718-42.152343-6.402344-3.828126.085938-7.625.171876-11.296876.171876-12.847656 0-32.0625-4.707032-57.113281-13.984376-.675781-.253906-1.289062-.644531-1.796875-1.152343l-37.472656-37.476563c-38.078125-38.074218-38.085938-99.8125-.007812-137.894531 35.453124-35.457031 92.019531-38.246094 130.789062-6.441406 2.65625 2.085937 6.398438 2.085937 9.058594 0 38.703125-31.996094 95.414062-29.203125 130.78125 6.445312 38.015625 38.101563 38.015625 99.785157 0 137.886719l-59.71875 59.71875c-.40625.40625-.882813.738281-1.402344.984375l-57.523438 27.292969c-.667968.316406-1.394531.480468-2.132812.480468zm-30.75-46.199218c15.1875 0 29.476562 1.351562 37.734375 9.425781 4.558594 4.625 6.984375 10.9375 6.703125 17.425781 0 .800782-.046875 1.605469-.144531 2.398438l41.054687-19.476563 59.113282-59.113281c34.117187-34.195312 34.117187-89.550781 0-123.746094-31.734376-31.988281-82.625-34.503906-117.363282-5.800781-6.320312 5.195313-15.433594 5.195313-21.757812 0-37.359375-30.652344-92.496094-25.21875-123.148438 12.140625-28.554687 34.796875-26.050781 85.578125 5.785156 117.398438l36.703126 36.703124c23.109374 8.496094 41.289062 12.984376 52.617187 12.984376 3.597656 0 7.324219-.085938 11.078125-.167969 3.871094-.089844 7.777344-.175781 11.625-.171875zm0 0"/><path d="m337.5 171.371094c-11.113281 0-20.152344-11.3125-20.152344-25.214844 0-13.90625 9.039063-25.21875 20.152344-25.21875 11.109375 0 20.148438 11.3125 20.148438 25.21875 0 13.902344-9.046876 25.214844-20.148438 25.214844zm0-40.4375c-5.503906 0-10.152344 6.96875-10.152344 15.21875s4.648438 15.21875 10.152344 15.21875c5.5 0 10.148438-6.96875 10.148438-15.21875s-4.648438-15.21875-10.148438-15.21875zm0 0"/><path d="m281.058594 130.980469c-11.113282 0-20.152344-11.3125-20.152344-25.21875s9.042969-25.21875 20.152344-25.21875 20.140625 11.3125 20.140625 25.21875-9.027344 25.21875-20.140625 25.21875zm0-40.4375c-5.503906 0-10.152344 6.96875-10.152344 15.21875s4.648438 15.214843 10.152344 15.214843c5.5 0 10.148437-6.964843 10.148437-15.214843s-4.648437-15.21875-10.148437-15.21875zm0 0"/><path d="m286.308594 171.371094c-2.761719 0-4.996094-2.242188-4.996094-5.003906 0-.863282.226562-1.710938.652344-2.464844l45.925781-80.828125c1.367187-2.402344 4.417969-3.242188 6.820313-1.878907 2.402343 1.363282 3.242187 4.417969 1.878906 6.820313l-45.929688 80.824219c-.886718 1.566406-2.550781 2.535156-4.351562 2.53125zm0 0"/></g></svg>