<svg id="Capa_1" enable-background="new 0 0 512 512" height="512" viewBox="0 0 512 512" width="512" xmlns="http://www.w3.org/2000/svg"><g id="XMLID_1282_"><circle id="XMLID_1513_" cx="232.821" cy="473" fill="#98eaf9" r="29"/><circle id="XMLID_1511_" cx="392.932" cy="473" fill="#98eaf9" r="29"/><g id="XMLID_1474_"><g id="XMLID_107_"><path id="XMLID_108_" d="m448.028 444h-255c-9.676 0-18.215-6.322-21.041-15.576l-96.614-316.424h-65.345v-44h81.63c9.676 0 18.215 6.322 21.041 15.576l96.615 316.424h238.714z" fill="#dae6e6"/></g></g><path id="XMLID_1285_" d="m310.028 10h138v157.961h-138z" fill="#ffd88e"/><path id="XMLID_493_" d="m212.028 87.961h148v79h-148z" fill="#fff"/><path id="XMLID_1312_" d="m450.638 351.961h-255.61l-51.333-184h358.277z" fill="#98eaf9"/><path id="XMLID_1241_" d="m409.148 203.974-23.979-24.006c-2.728-2.731-7.153-2.733-9.883-.005l-24.037 24.01c-1.44 1.438-2.249 3.39-2.249 5.425v81.602c0 4.235 3.433 7.668 7.668 7.668h47.055c4.235 0 7.668-3.433 7.668-7.668v-81.606c-.001-2.033-.807-3.982-2.243-5.42z" fill="#fff"/><path id="XMLID_336_" d="m509.936 161.914c-1.891-2.49-4.838-3.953-7.965-3.953h-43.943v-147.961c0-5.523-4.477-10-10-10h-138c-5.523 0-10 4.477-10 10v67.96h-88c-5.523 0-10 4.477-10 10v70h-56.161l-23.604-77.305c-4.137-13.551-16.436-22.655-30.604-22.655h-81.63c-5.523 0-10 4.477-10 10v44c0 5.523 4.477 10 10 10h57.943l94.452 309.345c4.137 13.551 16.436 22.655 30.604 22.655h5.752c-3.153 5.626-4.959 12.105-4.959 19 0 21.505 17.495 39 39 39s39-17.495 39-39c0-6.895-1.806-13.374-4.959-19h92.029c-3.153 5.626-4.959 12.105-4.959 19 0 21.505 17.495 39 39 39s39-17.495 39-39c0-6.895-1.806-13.374-4.959-19h21.055c5.523 0 10-4.477 10-10v-44c0-5.523-4.477-10-10-10h-231.312l-8.561-28.04h242.483c4.488 0 8.426-2.99 9.632-7.313l51.333-184c.841-3.011.224-6.243-1.667-8.733zm-189.908-141.914h118v137.96h-68v-70c0-5.523-4.477-10-10-10h-40zm-98 77.96h128v60h-128zm29.793 375.04c0 10.477-8.523 19-19 19s-19-8.523-19-19 8.523-19 19-19 19 8.523 19 19zm160.111 0c0 10.477-8.523 19-19 19s-19-8.523-19-19 8.523-19 19-19 19 8.523 19 19zm26.096-63v24h-245c-5.313 0-9.925-3.415-11.477-8.496l-96.614-316.424c-1.284-4.206-5.166-7.08-9.564-7.08h-55.345v-24h71.63c5.313 0 9.925 3.415 11.477 8.496l96.615 316.424c1.284 4.206 5.166 7.08 9.564 7.08zm5.018-68.04h-240.998l-50.074-164h218.221v26.54c0 5.523 4.477 10 10 10s10-4.477 10-10v-26.54h98.605z" fill="#80b6ff"/></g></svg>