<?xml version="1.0" encoding="iso-8859-1"?>
<!-- Generator: Adobe Illustrator 19.0.0, SVG Export Plug-In . SVG Version: 6.00 Build 0)  -->
<svg version="1.1" id="Capa_1" xmlns="http://www.w3.org/2000/svg" xmlns:xlink="http://www.w3.org/1999/xlink" x="0px" y="0px"
	 viewBox="0 0 512 512" style="enable-background:new 0 0 512 512;" xml:space="preserve">
<g>
	<g>
		<path d="M60,300c-5.11,0-10.12-0.435-15-1.257V512h30V300H60z"/>
	</g>
</g>
<g>
	<g>
		<path d="M452,300h-15v212h30V298.743C462.12,299.565,457.11,300,452,300z"/>
	</g>
</g>
<g>
	<g>
		<path d="M452,0H60C26.916,0,0,26.916,0,60v150c0,33.084,26.916,60,60,60h392c33.084,0,60-26.916,60-60V60
			C512,26.916,485.084,0,452,0z M347,180H165v-30h182V180z M422,120H90V90h332V120z"/>
	</g>
</g>
<g>
</g>
<g>
</g>
<g>
</g>
<g>
</g>
<g>
</g>
<g>
</g>
<g>
</g>
<g>
</g>
<g>
</g>
<g>
</g>
<g>
</g>
<g>
</g>
<g>
</g>
<g>
</g>
<g>
</g>
</svg>
